<svg xmlns="http://www.w3.org/2000/svg" xmlns:svg="http://www.w3.org/2000/svg" xmlns:xlink="http://www.w3.org/1999/xlink" version="1.0" height="584.9999988555908pt" width="610pt" viewBox="510 547 618 590.9999988555908" ><defs><style type="text/css">
            @font-face {
                font-family: 'noto_regular';
                src: url('https://app.creately.com/diagram/assets/fonts/noto/noto-regular.woff') format('woff'),
                     url('https://app.creately.com/diagram/assets/fonts/noto/noto-regular.woff2') format('woff2');
                font-weight: normal;
                font-style: normal;
            }
        p {
            margin: 0;
        }
        </style></defs><defs><style>
            span{ display: inline-block; }
        </style></defs><g id="1sbzqoqyl3"><g transform="translate(760 550)"><ellipse cx="15" cy="15" rx="15" ry="15" fill="rgba(69,178,157,1)" stroke="#45b29d" stroke-width="2" stroke-linecap="round" stroke-linejoin="round"/></g></g><g id="iwjgzz8jqp"><g transform="translate(515 705)"><path d="M 25,50 L 25,50 L 25,50 A 25 25 0 0 1 0 25.000000000000004 L 0,25 L 0,25.000000000000004 A 25 25 0 0 1 25 0 L 125,0 L 125,0 L 125,0 A 25 25 0 0 1 150 25 L 150,25 L 150,25 A 25 25 0 0 1 125 50 L 25,50 Z" fill="rgba(229,185,111,1)" stroke="#e5b96f" stroke-width="1.5" stroke-linecap="round" stroke-linejoin="round"/></g><g transform="translate(572.5, 720.5) rotate(0, 17.5, 9.5)" width="35" height="19"><text text-decoration="none" x="1" fill="rgb(255, 255, 255)" font-size="10pt" font-family="Lato"  y="17">Login</text><text text-decoration="none" x="34" fill="#4b4b4b" font-size="10pt" font-family="noto_regular"  y="17"></text></g></g><g id="b4jas3264r"><g transform="translate(740 615)"><path d="M 34.99999940395355,0 L 0,40.00000059604645 L 34.99999940395355,80.0000011920929 L 69.9999988079071,40.00000059604645 L 34.99999940395355,0 Z" fill="rgba(255,255,255,1)" stroke="#ea5b67" stroke-width="2" stroke-linecap="round" stroke-linejoin="round"/></g><g transform="translate(749.9999994039536, 637.5000005960464) rotate(0, 25, 17.5)" width="50" height="35"><text text-decoration="none" x="11.5" fill="rgb(75, 75, 75)" font-size="10pt" font-family="Lato"  y="14">User&#160;</text><text text-decoration="none" x="3.5" fill="rgb(75, 75, 75)" font-size="10pt" font-family="Lato"  y="36">Exists?&#160;</text><text text-decoration="none" x="46.5" fill="#4b4b4b" font-size="10pt" font-family="noto_regular"  y="36"></text></g></g><g id="16g8urx57j"><mask id="e3ff8" x="576" y="641" width="178" height="78" maskUnits="userSpaceOnUse"><rect x="576" y="641" width="178" height="78" fill="white" /><rect x="696.5" y="642.5" width="27" height="25" fill="black" /></mask><g mask="url(#e3ff8)"><path d="M 740,655 L 590,655 L 590,705" fill="none" stroke="#a0a0a0" stroke-width="2" stroke-linecap="round" stroke-linejoin="round"/><path d="M 590,705 L 596.4971751412429,698.0434782608696 M 590,705 L 583.5028248587571,698.0434782608696 Z" fill="rgb(255,255,255)" stroke="#a0a0a0" stroke-width="2" stroke-linecap="round" stroke-linejoin="round"/></g><g transform="translate(699.5, 645.5)" width="21" height="19"><text text-decoration="none" x="0.5" fill="rgb(75, 75, 75)" font-size="10pt" font-family="Lato"  y="17">Yes</text><text text-decoration="none" x="20.5" fill="#4b4b4b" font-size="10pt" font-family="noto_regular"  y="17"></text></g></g><g id="203i60dn47"><g transform="translate(875 705)"><path d="M 25,50 L 25,50 L 25,50 A 25 25 0 0 1 0 25.000000000000004 L 0,25 L 0,25.000000000000004 A 25 25 0 0 1 25 0 L 125,0 L 125,0 L 125,0 A 25 25 0 0 1 150 25 L 150,25 L 150,25 A 25 25 0 0 1 125 50 L 25,50 Z" fill="rgba(229,185,111,1)" stroke="#e5b96f" stroke-width="1.5" stroke-linecap="round" stroke-linejoin="round"/></g><g transform="translate(925, 720.5) rotate(0, 25, 9.5)" width="50" height="19"><text text-decoration="none" x="2.5" fill="rgb(255, 255, 255)" font-size="10pt" font-family="Lato"  y="17">Sign&#160;</text><text text-decoration="none" x="30.5" fill="rgb(255, 255, 255)" font-size="10pt" font-family="Lato"  y="17">Up</text><text text-decoration="none" x="47.5" fill="#4b4b4b" font-size="10pt" font-family="noto_regular"  y="17"></text></g></g><g id="7tjmmtl8rp"><mask id="0cf82" x="796" y="641" width="168" height="78" maskUnits="userSpaceOnUse"><rect x="796" y="641" width="168" height="78" fill="white" /><rect x="828" y="642.5" width="24" height="25" fill="black" /></mask><g mask="url(#0cf82)"><path d="M 810,655 L 950,655 L 950,705" fill="none" stroke="#a0a0a0" stroke-width="2" stroke-linecap="round" stroke-linejoin="round"/><path d="M 950,705 L 956.4971751412429,698.0434782608696 M 950,705 L 943.5028248587571,698.0434782608696 Z" fill="rgb(255,255,255)" stroke="#a0a0a0" stroke-width="2" stroke-linecap="round" stroke-linejoin="round"/></g><g transform="translate(831, 645.5)" width="18" height="19"><text text-decoration="none" x="0" fill="rgb(75, 75, 75)" font-size="10pt" font-family="Lato"  y="17">No</text><text text-decoration="none" x="18" fill="#4b4b4b" font-size="10pt" font-family="noto_regular"  y="17"></text></g></g><g id="6phqacqwuw"><g><path d="M 775,580 L 775,615" fill="none" stroke="#a0a0a0" stroke-width="2" stroke-linecap="round" stroke-linejoin="round"/><path d="M 775,615 L 781.4971751412429,608.0434782608696 M 775,615 L 768.5028248587571,608.0434782608696 Z" fill="rgb(255,255,255)" stroke="#a0a0a0" stroke-width="2" stroke-linecap="round" stroke-linejoin="round"/></g></g><g id="2xv3c0pboa"><g><path d="M 875,730 L 665,730" fill="none" stroke="#a0a0a0" stroke-width="2" stroke-linecap="round" stroke-linejoin="round"/><path d="M 665,730 L 671.9565217391304,736.4971751412429 M 665,730 L 671.9565217391304,723.5028248587571 Z" fill="rgb(255,255,255)" stroke="#a0a0a0" stroke-width="2" stroke-linecap="round" stroke-linejoin="round"/></g></g><g id="2lwogwykl3"><g><path d="M 590,755 L 590,830" fill="none" stroke="#a0a0a0" stroke-width="2" stroke-linecap="round" stroke-linejoin="round"/><path d="M 590,830 L 596.4971751412429,823.0434782608696 M 590,830 L 583.5028248587571,823.0434782608696 Z" fill="rgb(255,255,255)" stroke="#a0a0a0" stroke-width="2" stroke-linecap="round" stroke-linejoin="round"/></g></g><g id="289tsezmxk"><g transform="translate(555 830)"><path d="M 34.99999940395355,0 L 0,40.00000059604645 L 34.99999940395355,80.0000011920929 L 69.9999988079071,40.00000059604645 L 34.99999940395355,0 Z" fill="rgba(255,255,255,1)" stroke="#ea5b67" stroke-width="2" stroke-linecap="round" stroke-linejoin="round"/></g><g transform="translate(566.9999994039536, 852.5000005960464) rotate(0, 23, 17.5)" width="46" height="35"><text text-decoration="none" x="9" fill="rgb(75, 75, 75)" font-size="10pt" font-family="Lato"  y="14">Card&#160;</text><text text-decoration="none" x="3" fill="rgb(75, 75, 75)" font-size="10pt" font-family="Lato"  y="36">Exists?</text><text text-decoration="none" x="43" fill="#4b4b4b" font-size="10pt" font-family="noto_regular"  y="36"></text></g></g><g id="2nhtlvxsfu"><g transform="translate(875 845)"><path d="M 25,50 L 25,50 L 25,50 A 25 25 0 0 1 0 25.000000000000004 L 0,25 L 0,25.000000000000004 A 25 25 0 0 1 25 0 L 125,0 L 125,0 L 125,0 A 25 25 0 0 1 150 25 L 150,25 L 150,25 A 25 25 0 0 1 125 50 L 25,50 Z" fill="rgba(229,185,111,1)" stroke="#e5b96f" stroke-width="1.5" stroke-linecap="round" stroke-linejoin="round"/></g><g transform="translate(887.5, 860.5) rotate(0, 62.5, 9.5)" width="125" height="19"><text text-decoration="none" x="5.5" fill="rgb(255, 255, 255)" font-size="10pt" font-family="Lato"  y="17">Create&#160;</text><text text-decoration="none" x="47.5" fill="rgb(255, 255, 255)" font-size="10pt" font-family="Lato"  y="17">Aadhar&#160;</text><text text-decoration="none" x="93.5" fill="rgb(255, 255, 255)" font-size="10pt" font-family="Lato"  y="17">card</text><text text-decoration="none" x="119.5" fill="#4b4b4b" font-size="10pt" font-family="noto_regular"  y="17"></text></g></g><g id="5a0zx9k9ga"><mask id="7836e" x="611" y="856" width="278" height="28" maskUnits="userSpaceOnUse"><rect x="611" y="856" width="278" height="28" fill="white" /><rect x="643" y="857.5" width="24" height="25" fill="black" /></mask><g mask="url(#7836e)"><path d="M 625,870 L 875,870" fill="none" stroke="#a0a0a0" stroke-width="2" stroke-linecap="round" stroke-linejoin="round"/><path d="M 875,870 L 868.0434782608696,863.5028248587571 M 875,870 L 868.0434782608696,876.4971751412429 Z" fill="rgb(255,255,255)" stroke="#a0a0a0" stroke-width="2" stroke-linecap="round" stroke-linejoin="round"/></g><g transform="translate(646, 860.5)" width="18" height="19"><text text-decoration="none" x="0" fill="rgb(75, 75, 75)" font-size="10pt" font-family="Lato"  y="17">No</text><text text-decoration="none" x="18" fill="#4b4b4b" font-size="10pt" font-family="noto_regular"  y="17"></text></g></g><g id="508pfn7ocz"><g transform="translate(875 940)"><path d="M 25,50 L 25,50 L 25,50 A 25 25 0 0 1 0 25.000000000000004 L 0,25 L 0,25.000000000000004 A 25 25 0 0 1 25 0 L 125,0 L 125,0 L 125,0 A 25 25 0 0 1 150 25 L 150,25 L 150,25 A 25 25 0 0 1 125 50 L 25,50 Z" fill="rgba(229,185,111,1)" stroke="#e5b96f" stroke-width="1.5" stroke-linecap="round" stroke-linejoin="round"/></g><g transform="translate(892, 955.5) rotate(0, 58, 9.5)" width="116" height="19"><text text-decoration="none" x="5.5" fill="rgb(255, 255, 255)" font-size="10pt" font-family="Lato"  y="17">View&#160;</text><text text-decoration="none" x="36.5" fill="rgb(255, 255, 255)" font-size="10pt" font-family="Lato"  y="17">Aadhar&#160;</text><text text-decoration="none" x="82.5" fill="rgb(255, 255, 255)" font-size="10pt" font-family="Lato"  y="17">Card</text><text text-decoration="none" x="110.5" fill="#4b4b4b" font-size="10pt" font-family="noto_regular"  y="17"></text></g></g><g id="6j8hh4l9iq"><mask id="6c7a1" x="576" y="896" width="313" height="83" maskUnits="userSpaceOnUse"><rect x="576" y="896" width="313" height="83" fill="white" /><rect x="627.3041958041958" y="952.5" width="27" height="25" fill="black" /></mask><g mask="url(#6c7a1)"><path d="M 590,910 L 590,965 L 875,965" fill="none" stroke="#a0a0a0" stroke-width="2" stroke-linecap="round" stroke-linejoin="round"/><path d="M 875,965 L 868.0434782608696,958.5028248587571 M 875,965 L 868.0434782608696,971.4971751412429 Z" fill="rgb(255,255,255)" stroke="#a0a0a0" stroke-width="2" stroke-linecap="round" stroke-linejoin="round"/></g><g transform="translate(630.3041958041958, 955.5)" width="21" height="19"><text text-decoration="none" x="0.5" fill="rgb(75, 75, 75)" font-size="10pt" font-family="Lato"  y="17">Yes</text><text text-decoration="none" x="20.5" fill="#4b4b4b" font-size="10pt" font-family="noto_regular"  y="17"></text></g></g><g id="3niq9a05fb"><g><path d="M 950,895 L 950,940" fill="none" stroke="#a0a0a0" stroke-width="2" stroke-linecap="round" stroke-linejoin="round"/><path d="M 950,940 L 956.4971751412429,933.0434782608696 M 950,940 L 943.5028248587571,933.0434782608696 Z" fill="rgb(255,255,255)" stroke="#a0a0a0" stroke-width="2" stroke-linecap="round" stroke-linejoin="round"/></g></g><g id="y81qh4nj9i"><g transform="translate(765 1105)"><path d="L 28.7,14.99999942779541 A 14.35 14.35 0 1 0 28.6999928250006 15.014349425403749 M 26.5475,14.99999942779541 L 26.5475,14.99999942779541 A 12.1975 12.1975 0 1 1 26.54749390125051 14.98780192982832" fill="rgba(69,178,157,1)" stroke="#45b29d" stroke-width="0.5" stroke-linecap="round" stroke-linejoin="round"/><ellipse cx="14.35" cy="14.99999942779541" rx="7.175" ry="7.824999427795411" fill="rgba(69,178,157,1)" stroke="#45b29d" stroke-width="0.5" stroke-linecap="round" stroke-linejoin="round"/><path d="M 26.5475,14.99999942779541 L 26.5475,14.99999942779541 A 12.1975 12.1975 0 1 0 26.54749390125051 15.012196925762497 M 21.525,14.99999942779541 L 21.525,14.99999942779541 A 7.175 7.175 0 1 1 21.5249964125003 14.99282442899124" fill="rgba(255,255,255,0.01)" stroke="rgba(255,255,255,0.01)" stroke-width="0.5" stroke-linecap="round" stroke-linejoin="round"/></g></g><g id="1zcj2vdvu5"><g><path d="M 780,1070 L 780,1105" fill="none" stroke="#a0a0a0" stroke-width="2" stroke-linecap="round" stroke-linejoin="round"/><path d="M 780,1105 L 786.4971751412429,1098.0434782608695 M 780,1105 L 773.5028248587571,1098.0434782608695 Z" fill="rgb(255,255,255)" stroke="#a0a0a0" stroke-width="2" stroke-linecap="round" stroke-linejoin="round"/></g></g><g id="d62cmuoing"><g transform="translate(705 1020)"><path d="M 25,50 L 25,50 L 25,50 A 25 25 0 0 1 0 25.000000000000004 L 0,25 L 0,25.000000000000004 A 25 25 0 0 1 25 0 L 125,0 L 125,0 L 125,0 A 25 25 0 0 1 150 25 L 150,25 L 150,25 A 25 25 0 0 1 125 50 L 25,50 Z" fill="rgba(229,185,111,1)" stroke="#e5b96f" stroke-width="1.5" stroke-linecap="round" stroke-linejoin="round"/></g><g transform="translate(758, 1035.5) rotate(0, 22, 9.5)" width="44" height="19"><text text-decoration="none" x="0.5" fill="rgb(255, 255, 255)" font-size="10pt" font-family="Lato"  y="17">Logout</text><text text-decoration="none" x="43.5" fill="#4b4b4b" font-size="10pt" font-family="noto_regular"  y="17"></text></g></g><g id="5pxuo8lnuv"><g><path d="M 950,990 L 950,1005 L 865,1005 L 780,1005 L 780,1020" fill="none" stroke="#a0a0a0" stroke-width="2" stroke-linecap="round" stroke-linejoin="round"/><path d="M 780,1020 L 786.4971751412429,1013.0434782608696 M 780,1020 L 773.5028248587571,1013.0434782608696 Z" fill="rgb(255,255,255)" stroke="#a0a0a0" stroke-width="2" stroke-linecap="round" stroke-linejoin="round"/></g></g><g id="1eib3ratb4"><g transform="translate(975 1020)"><path d="M 25,50 L 25,50 L 25,50 A 25 25 0 0 1 0 25.000000000000004 L 0,25 L 0,25.000000000000004 A 25 25 0 0 1 25 0 L 125,0 L 125,0 L 125,0 A 25 25 0 0 1 150 25 L 150,25 L 150,25 A 25 25 0 0 1 125 50 L 25,50 Z" fill="rgba(229,185,111,1)" stroke="#e5b96f" stroke-width="1.5" stroke-linecap="round" stroke-linejoin="round"/></g><g transform="translate(982.5, 1027.5) rotate(0, 67.5, 17.5)" width="135" height="35"><text text-decoration="none" x="7" fill="rgb(255, 255, 255)" font-size="10pt" font-family="Lato"  y="14">Save&#160;</text><text text-decoration="none" x="38" fill="rgb(255, 255, 255)" font-size="10pt" font-family="Lato"  y="14">Aadhar&#160;</text><text text-decoration="none" x="84" fill="rgb(255, 255, 255)" font-size="10pt" font-family="Lato"  y="14">Card&#160;</text><text text-decoration="none" x="115" fill="rgb(255, 255, 255)" font-size="10pt" font-family="Lato"  y="14">as&#160;</text><text text-decoration="none" x="55.5" fill="rgb(255, 255, 255)" font-size="10pt" font-family="Lato"  y="36">PDF</text><text text-decoration="none" x="79.5" fill="#4b4b4b" font-size="10pt" font-family="noto_regular"  y="36"></text></g></g><g id="6o2bs9ii5s"><g><path d="M 1025,965 L 1050,965 L 1050,1020" fill="none" stroke="#a0a0a0" stroke-width="2" stroke-linecap="round" stroke-linejoin="round"/><path d="M 1050,1020 L 1056.497175141243,1013.0434782608696 M 1050,1020 L 1043.502824858757,1013.0434782608696 Z" fill="rgb(255,255,255)" stroke="#a0a0a0" stroke-width="2" stroke-linecap="round" stroke-linejoin="round"/></g></g><g id="6uc0cnkp5p"><g><path d="M 975,1045 L 855,1045" fill="none" stroke="#a0a0a0" stroke-width="2" stroke-linecap="round" stroke-linejoin="round"/><path d="M 855,1045 L 861.9565217391304,1051.497175141243 M 855,1045 L 861.9565217391304,1038.502824858757 Z" fill="rgb(255,255,255)" stroke="#a0a0a0" stroke-width="2" stroke-linecap="round" stroke-linejoin="round"/></g></g></svg>